<?xml version="1.0" standalone="no"?><!DOCTYPE svg PUBLIC "-//W3C//DTD SVG 1.1//EN" "http://www.w3.org/Graphics/SVG/1.1/DTD/svg11.dtd"><svg class="icon" width="200px" height="141.44px" viewBox="0 0 1448 1024" version="1.1" xmlns="http://www.w3.org/2000/svg"><path fill="#3c3c42" d="M1195.498068 186.63531c0-69.493701-56.420628-125.914329-125.914329-125.914329H377.05493c-69.493701 0-125.914329 56.420628-125.914329 125.914329V878.992105c0 69.493701 56.420628 125.914329 125.914329 125.914329h692.356795c69.493701 0 125.914329-56.420628 125.914329-125.914329V186.63531zM569.194692 641.268604c18.921552 18.921552 18.921552 49.540064 0 68.63363-9.460776 9.460776-21.845792 14.105157-34.230808 14.105157-12.385016 0-24.770032-4.816395-34.230808-14.105157L352.628927 561.798085c-18.921552-18.921552-18.921552-49.540064 0-68.461616l148.104149-148.104149c18.921552-18.921552 49.540064-18.921552 68.63363 0 18.921552 18.921552 18.921552 49.540064 0 68.461616l-113.873341 113.873341 113.701327 113.701327z m255.440954-244.432051L710.418276 693.044851c-7.396607 19.26558-25.802117 31.134554-45.239711 31.134554-5.676466 0-11.69696-1.032085-17.373425-3.268268-24.942046-9.63279-37.327062-37.67109-27.866286-62.613136l114.045356-296.208298c9.63279-24.942046 37.67109-37.499076 62.613136-27.866286 25.11406 9.63279 37.499076 37.67109 28.0383 62.613136z m268.858055 164.961532l-148.10415 148.104149c-9.460776 9.460776-21.845792 14.105157-34.230808 14.105157-12.385016 0-24.770032-4.816395-34.230808-14.105157-18.921552-18.921552-18.921552-49.712078 0-68.63363l113.873342-113.873341-113.873342-113.873341c-18.921552-18.921552-18.921552-49.540064 0-68.461616 18.921552-18.921552 49.540064-18.921552 68.461616 0l148.10415 148.104149c18.921552 18.921552 18.921552 49.712078 0 68.63363z"  /></svg>