<?xml version="1.0" standalone="no"?><!DOCTYPE svg PUBLIC "-//W3C//DTD SVG 1.1//EN" "http://www.w3.org/Graphics/SVG/1.1/DTD/svg11.dtd"><svg class="icon" width="200px" height="51.93px" viewBox="0 0 3944 1024" version="1.1" xmlns="http://www.w3.org/2000/svg"><path d="M1945.296593 146.204444h-220.16V0h220.16v146.204444zM2505.159111 0v146.204444h291.119408v299.083852h146.204444V0H2505.121185z" fill="#6DCAC4" /><path d="M2942.482963 471.267556h-273.445926V173.738667h-163.877926v443.733333h291.119408v52.451556h-291.119408v146.204444h291.119408v59.354074h-291.119408v146.204445h437.323852V471.267556zM928.805926 399.018667V252.852148H0v326.769778h691.427556v74.827852H1.403259v146.204444h690.024297v41.263408h237.37837V433.417481H194.180741v-34.398814H928.805926zM194.180741 146.204444h493.795555v77.368889H925.392593V0H0v223.611259h194.180741V146.204444zM2478.08 0H2011.515259v146.204444h45.43526l-45.43526 144.877037v584.400593H1777.588148v0.948148l-96.331852-61.174518V335.416889h264.040297V189.212444H1681.256296V0h-237.340444v189.212444h-146.204445v146.204445h146.204445v480.711111h1.365333l323.697778 205.558519h387.299556V291.081481l45.397333-144.914962h276.404148V0z" fill="#72B0E0" /><path d="M2351.217778 881.057185h-32.388741V303.559111h32.388741v577.498074z m-110.667852-707.318518l-48.545185 117.342814V1021.724444h286.075259V173.700741h-237.530074zM3897.457778 218.832593h-123.107556v656.649481h-42.704592V218.832593h-123.107556v656.611555h-48.165926v146.204445h377.135408v-146.204445h-40.049778V218.832593z" fill="#72B0E0" /><path d="M3816.296296 34.588444V1.289481H3670.091852v33.298963h-130.23763V0h-177.417481v34.588444h-42.856297v146.204445h42.856297v281.524148l-106.078815 32.540444v127.544889l106.078815-32.57837v285.658074h-42.856297v146.204445h220.273778V535.36237l68.645926-21.086814v-127.506963l-68.645926 21.086814V180.792889h397.653334V34.588444h-121.21126z" fill="#72B0E0" /><path d="M3167.952593 852.612741h-32.388741V156.520296h32.388741v696.092445zM3057.322667 0l-48.583111 141.463704V1021.724444h286.075259V0h-237.492148zM1397.873778 0H1016.490667v815.255704l-94.814815 60.22637H1.403259v146.204445H928.805926l325.025185-206.430815V146.204444h144.042667V0z" fill="#6DCAC4" /></svg>